HIERARCHY
ROOT Hips
{
	OFFSET 0.000000 0.000000 0.000000
	CHANNELS 6 Xposition Yposition Zposition Xrotation Yrotation Zrotation
	JOINT LeftUpLeg_virtual
	{
		OFFSET 0.000000 0.000000 0.000000
		CHANNELS 3 Xrotation Yrotation Zrotation
		JOINT LeftUpLeg
		{
			OFFSET 10.205400 -3.823500 0.155100
			CHANNELS 3 Xrotation Yrotation Zrotation
			JOINT LeftLeg
			{
				OFFSET 0.708757 -12.982077 0.567790
				CHANNELS 3 Xrotation Yrotation Zrotation
				JOINT LeftFoot
				{
					OFFSET -0.708756 -10.717838 -2.184338
					CHANNELS 3 Xrotation Yrotation Zrotation
					JOINT LeftToeBase
					{
						OFFSET 0.108149 -7.191104 7.560241
						CHANNELS 3 Xrotation Yrotation Zrotation
						JOINT LeftToe_End
						{
							OFFSET 0.070230 0.081724 4.490308
							CHANNELS 3 Xrotation Yrotation Zrotation
							End Site
							{
								OFFSET 0 0 0
							}
						}
					}
				}
			}
		}
	}
	JOINT RightUpLeg_virtual
	{
		OFFSET 0.000000 0.000000 0.000000
		CHANNELS 3 Xrotation Yrotation Zrotation
		JOINT RightUpLeg
		{
			OFFSET -10.205400 -3.823500 0.005500
			CHANNELS 3 Xrotation Yrotation Zrotation
			JOINT RightLeg
			{
				OFFSET -0.708756 -12.982134 0.610632
				CHANNELS 3 Xrotation Yrotation Zrotation
				JOINT RightFoot
				{
					OFFSET 0.708754 -10.717769 -1.945823
					CHANNELS 3 Xrotation Yrotation Zrotation
					JOINT RightToeBase
					{
						OFFSET -0.108140 -7.191069 7.372968
						CHANNELS 3 Xrotation Yrotation Zrotation
						JOINT RightToe_End
						{
							OFFSET -0.070227 0.081735 4.479403
							CHANNELS 3 Xrotation Yrotation Zrotation
							End Site
							{
								OFFSET 0 0 0
							}
						}
					}
				}
			}
		}
	}
	JOINT Spine_virtual
	{
		OFFSET 0.000000 0.000000 0.000000
		CHANNELS 3 Xrotation Yrotation Zrotation
		JOINT Spine
		{
			OFFSET 0.000000 6.876099 0.125700
			CHANNELS 3 Xrotation Yrotation Zrotation
			JOINT Spine1
			{
				OFFSET 0.000000 5.730043 0.104720
				CHANNELS 3 Xrotation Yrotation Zrotation
				JOINT Spine1_split
				{
					OFFSET 0.000000 5.730043 0.104720
					CHANNELS 3 Xrotation Yrotation Zrotation
					JOINT Spine2
					{
						OFFSET 0.000000 5.730043 0.104720
						CHANNELS 3 Xrotation Yrotation Zrotation
						JOINT Neck_virtual
						{
							OFFSET 0.000000 0.000000 0.000000
							CHANNELS 3 Xrotation Yrotation Zrotation
							JOINT Neck
							{
								OFFSET 0.000000 10.314075 0.188496
								CHANNELS 3 Xrotation Yrotation Zrotation
								JOINT Head
								{
									OFFSET 0.000000 7.643700 -2.377400
									CHANNELS 3 Xrotation Yrotation Zrotation
									JOINT HeadTop_End
									{
										OFFSET 0.000000 43.788605 -13.619600
										CHANNELS 3 Xrotation Yrotation Zrotation
										End Site
										{
											OFFSET 0 0 0
										}
									}
								}
							}
						}
						JOINT LeftShoulder_virtual
						{
							OFFSET 0.000000 0.000000 0.000000
							CHANNELS 3 Xrotation Yrotation Zrotation
							JOINT LeftShoulder
							{
								OFFSET 2.196100 4.412489 0.087492
								CHANNELS 3 Xrotation Yrotation Zrotation
								JOINT LeftShoulder_split
								{
									OFFSET 2.196100 4.412489 0.087492
									CHANNELS 3 Xrotation Yrotation Zrotation
									JOINT LeftArm
									{
										OFFSET 8.771219 -2.981674 -0.026999
										CHANNELS 3 Xrotation Yrotation Zrotation
										JOINT LeftForeArm
										{
											OFFSET 8.512804 0.000000 -0.000000
											CHANNELS 3 Xrotation Yrotation Zrotation
											JOINT LeftHand
											{
												OFFSET 18.484802 0.000000 -0.000000
												CHANNELS 3 Xrotation Yrotation Zrotation
												End Site
												{
													OFFSET 0 0 0
												}
											}
										}
									}
								}
							}
						}
						JOINT RightShoulder_virtual
						{
							OFFSET 0.000000 0.000000 0.000000
							CHANNELS 3 Xrotation Yrotation Zrotation
							JOINT RightShoulder
							{
								OFFSET -2.196100 4.412496 0.070690
								CHANNELS 3 Xrotation Yrotation Zrotation
								JOINT RightShoulder_split
								{
									OFFSET -2.196100 4.412496 0.070690
									CHANNELS 3 Xrotation Yrotation Zrotation
									JOINT RightArm
									{
										OFFSET -8.771282 -2.981682 -0.094208
										CHANNELS 3 Xrotation Yrotation Zrotation
										JOINT RightForeArm
										{
											OFFSET -8.494598 0.000000 0.000000
											CHANNELS 3 Xrotation Yrotation Zrotation
											JOINT RightHand
											{
												OFFSET -18.483803 0.000000 0.000001
												CHANNELS 3 Xrotation Yrotation Zrotation
												End Site
												{
													OFFSET 0 0 0
												}
											}
										}
									}
								}
							}
						}
					}
				}
			}
		}
	}
}
MOTION
Frames: 6
Frame Time: 0.03333333
0.363544 31.386723 -1.434542 0.000000 0.000000 0.000000 2.140351 -9.843121 -1.587376 -45.649050 -0.781325 10.993835 42.143654 -1.315638 2.225903 1.751091 0.865794 -7.627358 -0.389911 -1.257104 -0.209094 0.000000 0.000000 0.000000 2.140351 -9.843121 -1.587376 -2.444585 -11.899116 -14.843447 34.423648 -7.180990 3.544506 -28.385330 -6.911103 16.746089 -1.185560 0.325696 0.665613 0.000000 0.000000 0.000000 2.140351 -9.843121 -1.587376 21.542869 5.517228 1.011094 2.951615 1.865109 -0.160995 0.000000 0.000000 0.000000 0.000000 0.000000 0.000000 2.950948 1.939449 -0.175154 -4.099830 15.090191 2.372694 6.098623 46.772907 -19.938096 0.000000 0.000000 0.000000 2.950948 1.939449 -0.175154 1.306154 -33.191311 4.056580 0.000000 0.000000 0.000000 -22.439103 -14.543416 -67.584790 0.000049 -44.463702 -8.793756 0.000000 0.000000 0.000000 2.950948 1.939449 -0.175154 9.474286 21.562340 -11.639585 0.000000 0.000000 0.000000 -44.239064 10.875468 78.236798 0.000041 50.076396 2.035007 0.000000 0.000000 0.000000 
0.397967 31.373745 -1.276093 0.000000 0.000000 0.000000 2.298928 -9.139293 -1.517907 -45.938350 -0.716638 10.402243 42.329749 -1.637130 2.341625 1.615995 0.832425 -7.333658 -0.395719 -1.291653 -0.208753 0.000000 0.000000 0.000000 2.298928 -9.139293 -1.517907 -1.379457 -12.151293 -14.772121 33.497973 -7.801848 3.496814 -28.356055 -7.118031 17.282537 -1.223596 0.270158 0.714882 0.000000 0.000000 0.000000 2.298928 -9.139293 -1.517907 21.440968 5.464818 0.501829 2.917136 1.985256 -0.390848 0.000000 0.000000 0.000000 0.000000 0.000000 0.000000 2.916593 2.058882 -0.406592 -4.390919 14.896786 2.706929 5.129820 46.544983 -18.898485 0.000000 0.000000 0.000000 2.916593 2.058882 -0.406592 1.216754 -33.714504 4.232030 0.000000 0.000000 0.000000 -21.704820 -14.643548 -67.511420 0.000003 -44.942522 -7.663750 0.000000 0.000000 0.000000 2.916593 2.058882 -0.406592 9.352121 20.644016 -11.270557 0.000000 0.000000 0.000000 -44.692154 11.251955 79.128527 0.000023 49.534229 1.683164 0.000000 0.000000 0.000000 
0.425910 31.355198 -1.120420 0.000000 0.000000 0.000000 2.457987 -8.526380 -1.417882 -46.197682 -0.603935 9.853634 42.556665 -1.932337 2.467975 1.422899 0.808565 -7.079494 -0.412888 -1.385388 -0.206844 0.000000 0.000000 0.000000 2.457987 -8.526380 -1.417882 -0.426801 -12.287731 -14.724925 32.734054 -8.423122 3.452972 -28.381354 -7.324904 17.801394 -1.263056 0.206546 0.771751 0.000000 0.000000 0.000000 2.457987 -8.526380 -1.417882 21.339150 5.389170 -0.001263 2.878260 2.069780 -0.624885 0.000000 0.000000 0.000000 0.000000 0.000000 0.000000 2.876966 2.143172 -0.641693 -4.672441 14.693776 3.114028 4.033491 46.222359 -17.716244 0.000000 0.000000 0.000000 2.876966 2.143172 -0.641693 1.177283 -34.220689 4.459830 0.000000 0.000000 0.000000 -20.925149 -14.883114 -67.421234 0.000009 -45.299990 -6.535502 0.000000 0.000000 0.000000 2.876966 2.143172 -0.641693 9.326621 20.046018 -11.021192 0.000000 0.000000 0.000000 -45.044298 11.395518 79.862246 0.000020 49.125357 1.440795 0.000000 0.000000 0.000000 
0.449411 31.332714 -0.969881 0.000000 0.000000 0.000000 2.616881 -8.006781 -1.313941 -46.436909 -0.510691 9.346964 42.847795 -2.152177 2.618409 1.164928 0.794191 -6.892791 -0.420656 -1.430407 -0.206159 0.000000 0.000000 0.000000 2.616881 -8.006781 -1.313941 0.417657 -12.338360 -14.667585 32.086084 -9.031145 3.382197 -28.426930 -7.528170 18.303971 -1.234761 0.174876 0.807007 0.000000 0.000000 0.000000 2.616881 -8.006781 -1.313941 21.226966 5.285423 -0.480977 2.849312 2.129479 -0.844699 0.000000 0.000000 0.000000 0.000000 0.000000 0.000000 2.847434 2.202040 -0.862804 -4.929256 14.453379 3.540125 2.841582 45.921018 -16.428775 0.000000 0.000000 0.000000 2.847434 2.202040 -0.862804 1.163069 -34.736447 4.700216 0.000000 0.000000 0.000000 -20.077638 -15.281481 -67.271995 0.000031 -45.545938 -5.419473 0.000000 0.000000 0.000000 2.847434 2.202040 -0.862804 9.325790 19.801678 -10.910313 0.000000 0.000000 0.000000 -45.200426 11.259158 80.387905 -0.001076 48.894251 1.360700 0.000000 0.000000 0.000000 
0.469922 31.308990 -0.825777 0.000000 0.000000 0.000000 2.782330 -7.580555 -1.219191 -46.649984 -0.524568 8.884027 43.190011 -2.235272 2.755335 0.850273 0.790561 -6.783410 -0.401907 -1.340724 -0.208939 0.000000 0.000000 0.000000 2.782330 -7.580555 -1.219191 1.135921 -12.382955 -14.590739 31.507796 -9.562380 3.247085 -28.463606 -7.719077 18.781651 -1.259629 0.156428 0.821541 0.000000 0.000000 0.000000 2.782330 -7.580555 -1.219191 21.113431 5.166346 -0.925328 2.823472 2.167072 -1.048660 0.000000 0.000000 0.000000 0.000000 0.000000 0.000000 2.821093 2.238482 -1.068036 -5.157368 14.180783 3.968675 1.571954 45.651106 -15.029860 0.000000 0.000000 0.000000 2.821093 2.238482 -1.068036 1.123626 -35.270660 4.914018 0.000000 0.000000 0.000000 -19.108122 -15.808171 -67.075722 0.000043 -45.717041 -4.327844 0.000000 0.000000 0.000000 2.821093 2.238482 -1.068036 9.384402 19.892064 -10.951416 0.000000 0.000000 0.000000 -45.158250 10.808127 80.694327 -0.014104 48.874880 1.482389 0.000000 0.000000 0.000000 
0.487900 31.286350 -0.689281 0.000000 0.000000 0.000000 2.960951 -7.236255 -1.133976 -46.839689 -0.649588 8.464989 43.548354 -2.189161 2.859704 0.504784 0.795378 -6.737074 -0.386839 -1.260894 -0.211239 0.000000 0.000000 0.000000 2.960951 -7.236255 -1.133976 1.743361 -12.406368 -14.504569 30.974966 -10.034189 3.091352 -28.480731 -7.890171 19.218766 -1.229272 0.188219 0.794635 0.000000 0.000000 0.000000 2.960951 -7.236255 -1.133976 21.015491 5.030574 -1.331331 2.788289 2.186790 -1.245508 0.000000 0.000000 0.000000 0.000000 0.000000 0.000000 2.785151 2.257960 -1.264477 -5.370270 13.919541 4.416281 0.275434 45.355195 -13.528532 0.000000 0.000000 0.000000 2.785151 2.257960 -1.264477 1.088730 -35.820046 5.111110 0.000000 0.000000 0.000000 -18.082962 -16.402108 -66.897386 0.000010 -45.795595 -3.255464 0.000000 0.000000 0.000000 2.785151 2.257960 -1.264477 9.396894 20.120359 -11.066255 0.000000 0.000000 0.000000 -44.871310 10.555121 80.916404 -0.013359 48.964195 1.461513 0.000000 0.000000 0.000000 
